<mxfile host="app.diagrams.net" modified="2020-05-19T05:36:33.727Z" agent="5.0 (Windows NT 10.0; Win64; x64) AppleWebKit/537.36 (KHTML, like Gecko) Chrome/81.0.4044.138 Safari/537.36" etag="Jg48m-UZUSaPlsq-g00c" version="13.1.2" type="github">
  <diagram id="eCcpnNJjcjAPAZ9i47lu" name="Page-1">
    <mxGraphModel dx="1038" dy="499" grid="1" gridSize="10" guides="1" tooltips="1" connect="1" arrows="1" fold="1" page="1" pageScale="1" pageWidth="827" pageHeight="1169" math="0" shadow="0">
      <root>
        <mxCell id="0" />
        <mxCell id="1" parent="0" />
        <mxCell id="qjwkbUluly4XfcyJteSg-1" value="" style="rounded=1;whiteSpace=wrap;html=1;fillColor=none;" parent="1" vertex="1">
          <mxGeometry x="244" y="720" width="340" height="220" as="geometry" />
        </mxCell>
        <mxCell id="qjwkbUluly4XfcyJteSg-2" value="&lt;font size=&quot;3&quot;&gt;Vehicle Type&lt;br&gt;+&lt;br&gt;Mass&lt;br&gt;+&lt;br&gt;Air Resistance&lt;br&gt;+&lt;br&gt;Rotating Resistance&lt;br&gt;&lt;/font&gt;" style="rounded=1;whiteSpace=wrap;html=1;" parent="1" vertex="1">
          <mxGeometry x="254" y="730" width="120" height="200" as="geometry" />
        </mxCell>
        <mxCell id="qjwkbUluly4XfcyJteSg-3" value="&lt;font size=&quot;3&quot;&gt;Vehicle Model&lt;/font&gt;" style="rounded=1;whiteSpace=wrap;html=1;" parent="1" vertex="1">
          <mxGeometry x="454" y="730" width="120" height="200" as="geometry" />
        </mxCell>
        <mxCell id="qjwkbUluly4XfcyJteSg-4" value="&lt;font style=&quot;font-size: 18px&quot;&gt;Vehicle location + movement data&lt;/font&gt;" style="text;html=1;strokeColor=none;fillColor=none;align=center;verticalAlign=middle;whiteSpace=wrap;rounded=0;" parent="1" vertex="1">
          <mxGeometry x="439.25" y="970" width="149.5" height="50" as="geometry" />
        </mxCell>
        <mxCell id="qjwkbUluly4XfcyJteSg-5" value="" style="endArrow=classic;html=1;entryX=0;entryY=0.5;entryDx=0;entryDy=0;exitX=1;exitY=0.5;exitDx=0;exitDy=0;shape=flexArrow;fillColor=#dae8fc;strokeColor=#6c8ebf;" parent="1" source="qjwkbUluly4XfcyJteSg-2" target="qjwkbUluly4XfcyJteSg-3" edge="1">
          <mxGeometry width="50" height="50" relative="1" as="geometry">
            <mxPoint x="344" y="860" as="sourcePoint" />
            <mxPoint x="394" y="810" as="targetPoint" />
          </mxGeometry>
        </mxCell>
        <mxCell id="qjwkbUluly4XfcyJteSg-7" value="" style="endArrow=classic;html=1;entryX=0.5;entryY=1;entryDx=0;entryDy=0;exitX=0.5;exitY=0;exitDx=0;exitDy=0;shape=flexArrow;fillColor=#dae8fc;strokeColor=#6c8ebf;" parent="1" source="qjwkbUluly4XfcyJteSg-4" target="qjwkbUluly4XfcyJteSg-3" edge="1">
          <mxGeometry width="50" height="50" relative="1" as="geometry">
            <mxPoint x="469" y="1010" as="sourcePoint" />
            <mxPoint x="344" y="1010" as="targetPoint" />
          </mxGeometry>
        </mxCell>
        <mxCell id="cIQFeJR0rLZxWIp6SzGj-1" value="&lt;font style=&quot;font-size: 18px&quot;&gt;Vehicle&lt;/font&gt;" style="text;html=1;strokeColor=none;fillColor=none;align=center;verticalAlign=middle;whiteSpace=wrap;rounded=0;fontSize=20;" parent="1" vertex="1">
          <mxGeometry x="390" y="750" width="40" height="20" as="geometry" />
        </mxCell>
      </root>
    </mxGraphModel>
  </diagram>
</mxfile>
